<svg xmlns="http://www.w3.org/2000/svg" height="800" width="1200" viewBox="-32.76 -18.00025 283.92 108.0015"><path d="M102.72 0h12.96c.802.263 1.627.053 2.438.12h3.713c4.551.059 9.113.065 13.646.419 6.563.514 13.107 1.272 19.623 2.277 7.034 1.085 14.012 2.433 20.914 4.152 7.108 1.77 14.081 3.972 20.783 6.953 5.274 2.346 10.358 5.035 14.797 8.793 2.308 1.954 4.23 4.228 5.725 6.876.756 1.34.768 2.822 1.081 4.249v4.32c-.496 5.529-4.139 8.99-8.129 12.151-5.608 4.441-12.048 7.375-18.686 9.887-10.73 4.062-21.868 6.551-33.154 8.457-5.04.852-10.104 1.546-15.185 2.074-4.283.446-8.568.903-12.891.934-2.831.021-5.663.184-8.497.217h-1.64c-.694-.001-1.39 0-2.084 0-.816.067-1.647-.143-2.455.12h-12.96c-.802-.264-1.626-.053-2.438-.12-.692-.001-1.384 0-2.076 0h-1.637c-4.51-.057-9.028-.086-13.522-.412-5.41-.393-10.803-1.031-16.183-1.771-7.921-1.091-15.775-2.518-23.532-4.447-10.742-2.672-21.217-6.08-30.757-11.854-4.514-2.733-8.6-5.96-11.28-10.682C.474 41.271.313 39.71 0 38.16v-4.32c.384-4.761 3.296-8.018 6.656-10.937 5.979-5.193 13.073-8.421 20.391-11.178C38.5 7.411 50.398 4.84 62.452 2.934 68.8 1.931 75.182 1.211 81.589.671c3.305-.278 6.612-.34 9.922-.419 1.675-.04 3.348-.216 5.027-.132h3.51c.889-.062 1.791.135 2.672-.12z" fill="#163E69"/><path d="M102.72 0c-.85.483-1.769.14-2.652.223-.091-.055-.12-.105-.086-.154.032-.046.065-.069.098-.069h2.64z" fill="#436F90" clip-rule="evenodd" fill-rule="evenodd"/><path d="M118.12.185c-.817-.007-1.658.286-2.44-.185h2.4c.074.026.105.062.093.108-.015.051-.032.077-.053.077z" fill="#406D8E" clip-rule="evenodd" fill-rule="evenodd"/><path d="M115.68 72c.782-.474 1.623-.176 2.44-.185.057.056.069.101.039.138-.027.031-.053.047-.079.047h-2.4z" fill="#406D8F" clip-rule="evenodd" fill-rule="evenodd"/><path d="M100.278 71.816c.818.009 1.659-.288 2.442.185h-2.4c-.074-.026-.104-.062-.093-.108.014-.051.03-.077.051-.077z" fill="#406D8E" clip-rule="evenodd" fill-rule="evenodd"/><path d="M118.12.185a.5894.5894 0 00-.04-.185h2.16c.093.039.125.082.1.13-.027.05-.056.075-.085.075-.712-.006-1.423-.013-2.135-.02z" fill="#7D9BB2" clip-rule="evenodd" fill-rule="evenodd"/><path d="M118.08 72c.023-.06.037-.121.04-.185l2.135-.021c.086.053.112.1.079.144-.031.041-.062.062-.094.062h-2.16z" fill="#7C9BB2" clip-rule="evenodd" fill-rule="evenodd"/><path d="M100.278 71.816c.002.064.017.126.042.185h-2.16c-.095-.042-.128-.087-.1-.135.028-.051.058-.076.088-.076.71.008 1.42.017 2.13.026z" fill="#7E9CB3" clip-rule="evenodd" fill-rule="evenodd"/><path d="M100.08 0c.016.075.012.149-.012.223l-1.92-.015c-.089-.052-.117-.1-.084-.144.031-.043.063-.064.096-.064h1.92z" fill="#829FB5" clip-rule="evenodd" fill-rule="evenodd"/><path d="M120.24 72c-.001-.069.004-.138.015-.205.559.001 1.116.002 1.675.004-.006.066-.009.134-.01.201h-1.68zm-22.092-.211c.015.07.019.14.012.211h-1.68c0-.067-.004-.135-.01-.201.56-.004 1.119-.006 1.678-.01z" fill="#BFCED9" clip-rule="evenodd" fill-rule="evenodd"/><path d="M98.16 0a.806.806 0 01-.012.208C97.589.206 97.03.203 96.471.201c.006-.067.009-.134.009-.201h1.68z" fill="#BFCED8" clip-rule="evenodd" fill-rule="evenodd"/><path d="M120.255.206A1.0158 1.0158 0 01120.24 0h1.68c0 .067.004.134.009.201-.558.001-1.115.003-1.674.005z" fill="#BFCED9" clip-rule="evenodd" fill-rule="evenodd"/><path d="M118.518 38.871v-7.127c0-2.959.025-5.918-.017-8.877-.011-.768.17-1.052.986-1.017 1.517.066 3.039.048 4.558.006.685-.019.985.11.982.903-.028 8.717-.028 17.435 0 26.152.002.779-.28.939-.975.922-1.519-.039-3.04-.052-4.558.005-.747.027-1.127-.231-1.449-.907-2.523-5.282-5.086-10.546-7.641-15.813-.15-.309-.209-.683-.684-.951v4.551c0 4.039-.022 8.078.019 12.116.008.801-.228 1.031-1.01 1.004-1.558-.055-3.119-.035-4.678-.007-.604.011-.837-.165-.836-.812.019-8.797.017-17.595.004-26.392-.001-.561.166-.776.748-.767 1.799.028 3.6.043 5.398-.008.646-.019.8.374 1.009.805 2.471 5.086 4.942 10.172 7.417 15.257.166.341.355.671.533 1.007.066-.016.13-.033.194-.05zM71.619 35.88c0-4.32.021-8.64-.018-12.959-.008-.838.23-1.103 1.074-1.067 3.153.134 6.315-.175 9.466.2 5.893.702 9.806 4.63 10.479 10.531.348 3.046.217 6.054-.684 9.002-1.604 5.246-5.538 8.19-11.02 8.231-2.68.02-5.361-.039-8.039.026-.976.023-1.299-.219-1.285-1.246.061-4.237.026-8.478.027-12.718zm-44.503-.962c.034-2.208.425-5.197 1.831-7.969 1.975-3.896 5.237-5.647 9.526-5.627 4.358.02 7.722 1.854 9.467 5.885 2.479 5.725 2.477 11.608-.019 17.325-1.828 4.188-5.374 5.953-9.85 5.854-4.521-.099-7.72-2.259-9.501-6.426-1.115-2.608-1.469-5.37-1.454-9.042zM139.92 21.87c1.279 0 2.561.05 3.836-.02.721-.04.951.247 1.104.889 2.081 8.716 4.18 17.427 6.293 26.136.182.751-.009.979-.785.961-1.997-.045-3.996-.031-5.994-.004-.59.008-.83-.162-.907-.783-.167-1.344-.463-2.671-.653-4.012-.086-.598-.24-.923-.949-.895-1.396.058-2.798.04-4.195.006-.587-.014-.828.139-.903.773-.166 1.384-.493 2.748-.662 4.132-.079.644-.359.781-.928.775-1.998-.02-3.998-.047-5.995.009-.879.024-.878-.352-.717-1.01 2.137-8.703 4.276-17.405 6.367-26.12.176-.733.485-.867 1.132-.85 1.317.038 2.637.013 3.956.013zm32.162 1.393c-.199-.284-.398-.568-.71-1.011-.665 2.749-1.297 5.358-1.928 7.968-1.505 6.23-3.024 12.458-4.493 18.696-.158.673-.368.936-1.077.919-1.877-.044-3.756-.037-5.633.001-.581.012-.87-.168-1.005-.732-2.161-9.017-4.333-18.03-6.547-27.229 2.445 0 4.812-.002 7.179.002.437 0 .468.327.523.658.808 4.794 1.624 9.586 2.438 14.379.123.277.103.599.266.797.009-.08.032-.229.143-.345.829-4.951 1.66-9.901 2.483-14.853.079-.478.312-.654.806-.652 4.473.015 8.946.017 13.42-.002.537-.002.675.299.785.701-.203.245-.479.271-.759.222-2.005-.35-3.991-.474-5.891.481z" fill="#FFF" clip-rule="evenodd" fill-rule="evenodd"/><path d="M172.082 23.263c.424-.877 1.09-1.254 2.092-1.198 1.531.085 3.093-.18 4.559.496 1.114 2.458 2.228 4.916 3.436 7.582 1.343-2.486 2.632-4.792 3.835-7.142.433-.844.931-1.214 1.92-1.156 1.633.095 3.275.025 5.101.025-.797 1.574-1.538 3.055-2.295 4.527-1.493 2.904-2.985 5.809-4.505 8.7-.288.548-.434 1.085-.431 1.705.017 3.959-.015 7.918.026 11.876.01.846-.133 1.215-1.094 1.168-1.715-.085-3.438-.066-5.156-.006-.836.03-1.081-.219-1.071-1.064.044-3.838-.004-7.677.036-11.516.011-.955-.223-1.774-.657-2.613-1.96-3.781-3.869-7.587-5.796-11.384zM53.718 35.742c0-4.276.022-8.553-.019-12.829-.008-.836.215-1.095 1.061-1.063 1.716.065 3.439.079 5.153-.004.934-.045 1.114.267 1.109 1.141-.036 6.914-.003 13.828-.041 20.742-.005.913.183 1.261 1.166 1.205 1.554-.089 3.117-.002 4.674-.034.603-.013.923.145.829.798-.006.039.002.08-.001.12-.102 1.297.558 2.956-.267 3.793-.719.73-2.357.193-3.589.204-2.957.024-5.916-.041-8.872.034-1.038.026-1.239-.314-1.227-1.278.053-4.276.024-8.553.024-12.829z" fill="#FFF" clip-rule="evenodd" fill-rule="evenodd"/><path d="M161.239 37.366c.035.155 0 .406-.133.351-.331-.142-.358-.473-.275-.803.135.152.272.302.408.452z" fill="#8FA9BD" clip-rule="evenodd" fill-rule="evenodd"/><path d="M78.93 35.862c0-2.677.047-5.356-.025-8.031-.026-.971.316-1.115 1.165-1.029 2.495.251 4.075 1.815 4.587 4.885.509 3.054.456 6.13-.202 9.163-.571 2.631-2.246 4.024-4.6 4.077-.718.016-.958-.148-.944-.912.05-2.718.019-5.436.019-8.153zm-45.108-.129c.076-2.345.211-4.697 1.239-6.874.97-2.054 2.761-2.9 4.559-2.175 1.325.535 1.982 1.675 2.422 2.954.924 2.688 1.041 5.462.809 8.264-.135 1.631-.357 3.25-1.077 4.749-.697 1.45-1.681 2.526-3.45 2.495-1.708-.03-2.661-1.079-3.31-2.507-.999-2.191-1.12-4.537-1.192-6.906z" fill="#163E69" clip-rule="evenodd" fill-rule="evenodd"/><path d="M139.876 28.207c.617 3.45 1.225 6.901 1.862 10.348.086.464.03.675-.483.667a86.348 86.348 0 00-2.879.002c-.451.007-.655-.112-.562-.623.637-3.448 1.254-6.898 1.877-10.349.062-.015.124-.03.185-.045z" fill="#163F69" clip-rule="evenodd" fill-rule="evenodd"/></svg>